<?xml version="1.0" standalone="no"?><svg xmlns="http://www.w3.org/2000/svg" viewBox="0 0 1440 320"><path fill="#4756df" fill-opacity="1" d="M0,128L12,117.3C24,107,48,85,72,96C96,107,120,149,144,192C168,235,192,277,216,288C240,299,264,277,288,261.3C312,245,336,235,360,197.3C384,160,408,96,432,58.7C456,21,480,11,504,32C528,53,552,107,576,117.3C600,128,624,96,648,112C672,128,696,192,720,213.3C744,235,768,213,792,186.7C816,160,840,128,864,133.3C888,139,912,181,936,202.7C960,224,984,224,1008,234.7C1032,245,1056,267,1080,250.7C1104,235,1128,181,1152,165.3C1176,149,1200,171,1224,192C1248,213,1272,235,1296,245.3C1320,256,1344,256,1368,250.7C1392,245,1416,235,1428,229.3L1440,224L1440,320L1428,320C1416,320,1392,320,1368,320C1344,320,1320,320,1296,320C1272,320,1248,320,1224,320C1200,320,1176,320,1152,320C1128,320,1104,320,1080,320C1056,320,1032,320,1008,320C984,320,960,320,936,320C912,320,888,320,864,320C840,320,816,320,792,320C768,320,744,320,720,320C696,320,672,320,648,320C624,320,600,320,576,320C552,320,528,320,504,320C480,320,456,320,432,320C408,320,384,320,360,320C336,320,312,320,288,320C264,320,240,320,216,320C192,320,168,320,144,320C120,320,96,320,72,320C48,320,24,320,12,320L0,320Z"></path></svg>