<?xml version="1.0" standalone="no"?><svg xmlns="http://www.w3.org/2000/svg" viewBox="0 0 1440 320"><path fill="#4756df" fill-opacity="1" d="M0,32L10.4,42.7C20.9,53,42,75,63,112C83.5,149,104,203,125,224C146.1,245,167,235,188,240C208.7,245,230,267,250,261.3C271.3,256,292,224,313,218.7C333.9,213,355,235,376,256C396.5,277,417,299,438,277.3C459.1,256,480,192,501,186.7C521.7,181,543,235,563,250.7C584.3,267,605,245,626,218.7C647,192,668,160,689,154.7C709.6,149,730,171,751,186.7C772.2,203,793,213,814,197.3C834.8,181,856,139,877,133.3C897.4,128,918,160,939,154.7C960,149,981,107,1002,80C1022.6,53,1043,43,1064,64C1085.2,85,1106,139,1127,176C1147.8,213,1169,235,1190,213.3C1210.4,192,1231,128,1252,106.7C1273,85,1294,107,1315,133.3C1335.7,160,1357,192,1377,202.7C1398.3,213,1419,203,1430,197.3L1440,192L1440,320L1429.6,320C1419.1,320,1398,320,1377,320C1356.5,320,1336,320,1315,320C1293.9,320,1273,320,1252,320C1231.3,320,1210,320,1190,320C1168.7,320,1148,320,1127,320C1106.1,320,1085,320,1064,320C1043.5,320,1023,320,1002,320C980.9,320,960,320,939,320C918.3,320,897,320,877,320C855.7,320,835,320,814,320C793,320,772,320,751,320C730.4,320,710,320,689,320C667.8,320,647,320,626,320C605.2,320,584,320,563,320C542.6,320,522,320,501,320C480,320,459,320,438,320C417.4,320,397,320,376,320C354.8,320,334,320,313,320C292.2,320,271,320,250,320C229.6,320,209,320,188,320C167,320,146,320,125,320C104.3,320,83,320,63,320C41.7,320,21,320,10,320L0,320Z"></path></svg>