<?xml version="1.0" standalone="no"?><svg xmlns="http://www.w3.org/2000/svg" viewBox="0 0 1440 320"><path fill="#4756df" fill-opacity="1" d="M0,128L10.4,149.3C20.9,171,42,213,63,208C83.5,203,104,149,125,138.7C146.1,128,167,160,188,144C208.7,128,230,64,250,74.7C271.3,85,292,171,313,181.3C333.9,192,355,128,376,112C396.5,96,417,128,438,122.7C459.1,117,480,75,501,58.7C521.7,43,543,53,563,80C584.3,107,605,149,626,160C647,171,668,149,689,133.3C709.6,117,730,107,751,133.3C772.2,160,793,224,814,234.7C834.8,245,856,203,877,154.7C897.4,107,918,53,939,69.3C960,85,981,171,1002,181.3C1022.6,192,1043,128,1064,117.3C1085.2,107,1106,149,1127,149.3C1147.8,149,1169,107,1190,101.3C1210.4,96,1231,128,1252,154.7C1273,181,1294,203,1315,218.7C1335.7,235,1357,245,1377,256C1398.3,267,1419,277,1430,282.7L1440,288L1440,0L1429.6,0C1419.1,0,1398,0,1377,0C1356.5,0,1336,0,1315,0C1293.9,0,1273,0,1252,0C1231.3,0,1210,0,1190,0C1168.7,0,1148,0,1127,0C1106.1,0,1085,0,1064,0C1043.5,0,1023,0,1002,0C980.9,0,960,0,939,0C918.3,0,897,0,877,0C855.7,0,835,0,814,0C793,0,772,0,751,0C730.4,0,710,0,689,0C667.8,0,647,0,626,0C605.2,0,584,0,563,0C542.6,0,522,0,501,0C480,0,459,0,438,0C417.4,0,397,0,376,0C354.8,0,334,0,313,0C292.2,0,271,0,250,0C229.6,0,209,0,188,0C167,0,146,0,125,0C104.3,0,83,0,63,0C41.7,0,21,0,10,0L0,0Z"></path></svg>